<svg xmlns="http://www.w3.org/2000/svg" viewBox="0 0 151.66 47.39"><defs><style>.cls-1,.cls-2{fill:#fff;}.cls-2{font-size:24px;font-family:Montserrat-SemiBoldItalic, Montserrat;font-weight:600;font-style:italic;letter-spacing:-0.02em;}.cls-3{letter-spacing:0em;}</style></defs><title>Asset 2</title><g id="Layer_2" data-name="Layer 2"><g id="Text"><path class="cls-1" d="M2.85,21.24c0,2.32.32,4.33.45,6.34.15,2.36,1.41,4.41,2.43,6.5.74,1.51,2.05,2.48,3.17,3.64a27.31,27.31,0,0,0,3.87,3.33,17.25,17.25,0,0,0,4.61,2.18,23.87,23.87,0,0,0,3.36.82,8.18,8.18,0,0,0,4.41-.56,16.74,16.74,0,0,1,4.13-1A7.56,7.56,0,0,0,33,41.38c1.57-1.08,3.14-2.17,4.75-3.2a10,10,0,0,0,3-3.83,17.92,17.92,0,0,0,2.5-6.25,10.67,10.67,0,0,1,.72-2c.17-.47.46-.58.79-.1a2.06,2.06,0,0,1,.51,1.44C45,30,45,32.63,43.7,35a2,2,0,0,0-.17.49c-.74,3.49-3.06,5.9-5.73,8A7.24,7.24,0,0,1,33.63,45a9.21,9.21,0,0,0-2,.48,22.33,22.33,0,0,1-4.71,1.07,12.26,12.26,0,0,0-2.34.55,20.52,20.52,0,0,1-5.18.31,10.14,10.14,0,0,1-4-1.25c-.93-.4-1.83-.88-2.76-1.27a19.25,19.25,0,0,1-4.45-3.14,3.05,3.05,0,0,1-.62-.83A10.82,10.82,0,0,0,6.07,39,17.81,17.81,0,0,1,1.8,32.48,29.84,29.84,0,0,1,.18,26.12a21.47,21.47,0,0,1,.49-8.18,32.53,32.53,0,0,1,1.81-5.42A8,8,0,0,1,6.61,8.2c.26-.11.33-.39.51-.57C8.37,6.32,9.75,5.15,10.9,3.72c.94-1.17,2.52-1.58,3.89-2.21A17,17,0,0,1,20.29.09,16.43,16.43,0,0,1,26,.47a93.28,93.28,0,0,1,9.53,3.45c.9.33,1.84.53,2.72.89a2,2,0,0,1,1.4,2.74,4.55,4.55,0,0,0,.65,3.63c.1.17.21.4.37.47,1.86.76,1.88,2.47,2.07,4.06a15.18,15.18,0,0,0,.77,3.73,14.25,14.25,0,0,1,.39,1.69c.06.19.09.43-.14.54s-.36-.1-.48-.27L39.48,16a1.27,1.27,0,0,1-.2-.38c-.49-1.75-1.9-2.26-3.45-2.57a1.69,1.69,0,0,1-1.26-.84,5.1,5.1,0,0,0-2.09-2.15,4.09,4.09,0,0,1-1.85-2.71A3.69,3.69,0,0,0,28.5,4.9a16.85,16.85,0,0,0-2.23-1.15A28,28,0,0,0,23,3.12a5.41,5.41,0,0,0-2.73.19,9.7,9.7,0,0,1-2.3.37,14.26,14.26,0,0,0-6.58,2.54,45.23,45.23,0,0,0-4,3,7.75,7.75,0,0,0-1.39,2C4.35,13.54,3,16,3,18.94,3,19.8,2.81,20.66,2.85,21.24Z"/><path class="cls-1" d="M27.82,25.4c0-.87,0-1.74,0-2.61A1.4,1.4,0,0,1,29,21.25c1.62-.45,2.8.34,2.73,1.84a1.37,1.37,0,0,1-1.34,1.42c-.23,0-.46,0-.69,0a.69.69,0,0,0-.75.58.65.65,0,0,0,.52.78l1.31.47c.88.32,1,1,.95,1.84a1.39,1.39,0,0,1-1.1,1.38,2.9,2.9,0,0,1-1.95-.07,1.23,1.23,0,0,1-.88-1.26C27.83,27.31,27.82,26.35,27.82,25.4Z"/><path class="cls-1" d="M23,24.27c0-.49,0-1,0-1.47.06-1.15.93-1.77,2.29-1.64a1.66,1.66,0,0,1,1.72,2c-.13.92-.61,1.32-1.69,1.36-.47,0-1-.05-1.15.53-.12.41-.18.91.28,1.17a1,1,0,0,0,1.28-.14c.35-.4.8-.69,1.14-.22s-.06,1-.52,1.2a2.93,2.93,0,0,1-2.6,0C23,26.76,23,26,23,25.32c0-.35,0-.7,0-1.05Z"/><path class="cls-1" d="M36.58,24.38v.87a2.1,2.1,0,0,1-3.31,1.87,1.49,1.49,0,0,1-.74-1.54,1.49,1.49,0,0,1,.88-1.47c.4-.17.82-.3,1.22-.45s.71-.28.71-.76a.57.57,0,0,0-.32-.57,1,1,0,0,0-1.14.13c-.31.33-.59.65-1.09.42a.38.38,0,0,1-.22-.43,1.32,1.32,0,0,1,.88-1.09c1.79-.74,3.12.13,3.13,2.06Zm-1.12.93c-.06-.24.14-.65-.38-.68s-1.4.58-1.39,1.06.37.66.82.68C35.24,26.41,35.47,26,35.46,25.31Z"/><path class="cls-1" d="M17.67,24.32c0,.46,0,.93,0,1.39,0,1.12-.51,1.57-1.69,1.64-1.51.08-2.21-.32-2.3-1.47a22.78,22.78,0,0,1,0-3.2c.07-1,.9-1.59,2.14-1.53s1.82.58,1.86,1.7C17.68,23.34,17.67,23.83,17.67,24.32Zm-1.11-.08c0-.38,0-.75,0-1.12,0-.6-.26-.95-.85-1a.86.86,0,0,0-1,1c0,.78,0,1.56,0,2.33s.29,1,1,.94.87-.34.87-.92Z"/><path class="cls-1" d="M43,10.24a2,2,0,0,1-2.18-1.86c0-1.07,1.27-2.64,2.13-2.66a2.31,2.31,0,0,1,2,2.2A2.37,2.37,0,0,1,43,10.24Z"/><path class="cls-1" d="M8.87,24.31c0-.44,0-.87,0-1.31a1.46,1.46,0,0,1,1.05-1.68,2.51,2.51,0,0,1,2.6.43c.26.33.48.75.1,1.08s-.69.14-.95-.23a1,1,0,0,0-1.26-.29c-.46.15-.4.59-.41,1,0,.72,0,1.44,0,2.17,0,.4.07.78.53.88s.84.12,1.1-.3.65-.71,1-.29.12.85-.23,1.15a2.64,2.64,0,0,1-2.64.31c-.8-.23-1-.91-.93-1.67C8.88,25.12,8.87,24.71,8.87,24.31Z"/><path class="cls-1" d="M19.92,23.12V26.5c0,.39,0,.8-.56.79s-.55-.42-.55-.8V19.72c0-.42.11-.76.62-.74s.49.4.49.76Z"/><path class="cls-1" d="M22.17,23.19c0,1.1,0,2.19,0,3.29,0,.39,0,.79-.54.81s-.58-.38-.58-.78V19.75c0-.41.06-.78.59-.76s.53.43.53.81C22.18,20.93,22.17,22.06,22.17,23.19Z"/><path class="cls-1" d="M45.47,12.63a1.16,1.16,0,0,1-1.29,1.19c-.5,0-1.4-.71-1.41-1.12s1-1.23,1.63-1.22S45.49,11.86,45.47,12.63Z"/><text class="cls-2" transform="translate(57.37 32.09)">C<tspan class="cls-3" x="16.97" y="0">ollega</tspan></text></g></g></svg>